<svg id="visual" viewBox="0 0 960 300" width="960" height="300" xmlns="http://www.w3.org/2000/svg" xmlns:xlink="http://www.w3.org/1999/xlink" version="1.1"><path d="M0 16L16 20C32 24 64 32 96 34.5C128 37 160 34 192 31.5C224 29 256 27 288 26.5C320 26 352 27 384 27.5C416 28 448 28 480 30C512 32 544 36 576 38C608 40 640 40 672 41.5C704 43 736 46 768 43C800 40 832 31 864 28.5C896 26 928 30 944 32L960 34L960 0L944 0C928 0 896 0 864 0C832 0 800 0 768 0C736 0 704 0 672 0C640 0 608 0 576 0C544 0 512 0 480 0C448 0 416 0 384 0C352 0 320 0 288 0C256 0 224 0 192 0C160 0 128 0 96 0C64 0 32 0 16 0L0 0Z" fill="#282828"></path><path d="M0 103L16 103.5C32 104 64 105 96 106C128 107 160 108 192 110.5C224 113 256 117 288 112C320 107 352 93 384 88C416 83 448 87 480 89.5C512 92 544 93 576 100C608 107 640 120 672 122C704 124 736 115 768 115C800 115 832 124 864 126.5C896 129 928 125 944 123L960 121L960 32L944 30C928 28 896 24 864 26.5C832 29 800 38 768 41C736 44 704 41 672 39.5C640 38 608 38 576 36C544 34 512 30 480 28C448 26 416 26 384 25.5C352 25 320 24 288 24.5C256 25 224 27 192 29.5C160 32 128 35 96 32.5C64 30 32 22 16 18L0 14Z" fill="#1b1b1b"></path><path d="M0 142L16 149.5C32 157 64 172 96 185C128 198 160 209 192 209C224 209 256 198 288 189.5C320 181 352 175 384 177C416 179 448 189 480 191C512 193 544 187 576 186C608 185 640 189 672 188.5C704 188 736 183 768 182.5C800 182 832 186 864 184C896 182 928 174 944 170L960 166L960 119L944 121C928 123 896 127 864 124.5C832 122 800 113 768 113C736 113 704 122 672 120C640 118 608 105 576 98C544 91 512 90 480 87.5C448 85 416 81 384 86C352 91 320 105 288 110C256 115 224 111 192 108.5C160 106 128 105 96 104C64 103 32 102 16 101.5L0 101Z" fill="#0c0c0c"></path><path d="M0 172L16 178.5C32 185 64 198 96 211.5C128 225 160 239 192 238C224 237 256 221 288 213C320 205 352 205 384 209C416 213 448 221 480 223.5C512 226 544 223 576 219.5C608 216 640 212 672 208C704 204 736 200 768 200C800 200 832 204 864 202C896 200 928 192 944 188L960 184L960 164L944 168C928 172 896 180 864 182C832 184 800 180 768 180.5C736 181 704 186 672 186.5C640 187 608 183 576 184C544 185 512 191 480 189C448 187 416 177 384 175C352 173 320 179 288 187.5C256 196 224 207 192 207C160 207 128 196 96 183C64 170 32 155 16 147.5L0 140Z" fill="#000000"></path><path d="M0 232L16 232C32 232 64 232 96 239.5C128 247 160 262 192 261.5C224 261 256 245 288 236.5C320 228 352 227 384 235C416 243 448 260 480 262C512 264 544 251 576 246C608 241 640 244 672 244.5C704 245 736 243 768 241.5C800 240 832 239 864 239C896 239 928 240 944 240.5L960 241L960 182L944 186C928 190 896 198 864 200C832 202 800 198 768 198C736 198 704 202 672 206C640 210 608 214 576 217.5C544 221 512 224 480 221.5C448 219 416 211 384 207C352 203 320 203 288 211C256 219 224 235 192 236C160 237 128 223 96 209.5C64 196 32 183 16 176.5L0 170Z" fill="#000000"></path><path d="M0 301L16 301C32 301 64 301 96 301C128 301 160 301 192 301C224 301 256 301 288 301C320 301 352 301 384 301C416 301 448 301 480 301C512 301 544 301 576 301C608 301 640 301 672 301C704 301 736 301 768 301C800 301 832 301 864 301C896 301 928 301 944 301L960 301L960 239L944 238.5C928 238 896 237 864 237C832 237 800 238 768 239.5C736 241 704 243 672 242.5C640 242 608 239 576 244C544 249 512 262 480 260C448 258 416 241 384 233C352 225 320 226 288 234.5C256 243 224 259 192 259.5C160 260 128 245 96 237.5C64 230 32 230 16 230L0 230Z" fill="#000000"></path></svg>